<svg width="69" height="69" viewBox="0 0 69 69" fill="none" xmlns="http://www.w3.org/2000/svg">
<path fill-rule="evenodd" clip-rule="evenodd" d="M43.7536 22.6825C43.4913 22.6516 43.2262 22.6516 42.9639 22.6825L28.6848 26.3786C27.548 26.6604 26.6604 27.548 26.3786 28.6848L22.7773 43.0902C22.5398 44.0491 22.7645 45.0639 23.3846 45.8329C24.0048 46.6019 24.9489 47.0365 25.9364 47.0075C26.1987 47.0384 26.4638 47.0384 26.7261 47.0075L41.1632 43.3114C42.2999 43.0296 43.1875 42.142 43.4693 41.0052L47.0707 26.5998C47.3082 25.6409 47.0835 24.6261 46.4633 23.8571C45.8432 23.0881 44.899 22.6535 43.9116 22.6825H43.7536ZM40.2786 29.285L38.0673 38.1936L29.1586 40.405L31.37 31.4964L40.2786 29.285Z" fill="white"/>
<path fill-rule="evenodd" clip-rule="evenodd" d="M41.5423 2.875H28.1477C14.19 2.875 2.875 14.19 2.875 28.1477V41.5423C2.875 55.5 14.19 66.815 28.1477 66.815H41.5423C55.5 66.815 66.815 55.5 66.815 41.5423V28.1477C66.815 14.19 55.5 2.875 41.5423 2.875ZM28.1477 62.0764C16.8143 62.059 7.63103 52.8757 7.61364 41.5423V28.1477C7.63103 16.8143 16.8143 7.63103 28.1477 7.61364H41.5423C52.8757 7.63103 62.059 16.8143 62.0764 28.1477V41.5423C62.059 52.8757 52.8757 62.059 41.5423 62.0764H28.1477Z" fill="white"/>
</svg>
