<svg width="69" height="69" viewBox="0 0 69 69" fill="none" xmlns="http://www.w3.org/2000/svg">
<path fill-rule="evenodd" clip-rule="evenodd" d="M38.2088 7.31088L57.9025 21.1396C60.9643 23.2915 62.7876 26.7986 62.79 30.5409V51.0396C62.7824 54.2955 61.4817 57.415 59.1741 59.7118C56.8664 62.0087 53.7409 63.2948 50.485 63.2871H18.055C14.7991 63.2948 11.6736 62.0087 9.36595 59.7118C7.05831 57.415 5.75762 54.2955 5.75 51.0396V30.5409C5.75245 26.7986 7.5757 23.2915 10.6375 21.1396L30.3313 7.31088C32.5447 5.22971 35.9953 5.22971 38.2088 7.31088ZM56.1247 56.6624C57.6236 55.1743 58.4699 53.1518 58.4775 51.0396V30.5409C58.4372 28.2478 57.305 26.1116 55.43 24.7909L35.7363 10.9621L35.42 10.7321C35.1172 10.4231 34.7027 10.2489 34.27 10.2489C33.8373 10.2489 33.4228 10.4231 33.12 10.7321L32.8038 10.9621L13.11 24.7909C11.235 26.1116 10.1028 28.2478 10.0625 30.5409V51.0396C10.0701 53.1518 10.9165 55.1743 12.4153 56.6624C13.9142 58.1506 15.9429 58.9823 18.055 58.9746H50.485C52.5971 58.9823 54.6258 58.1506 56.1247 56.6624Z" fill="white"/>
<path d="M51.7212 31.6621L35.7937 42.7884C35.3222 43.26 34.6748 43.5128 34.0085 43.4855C33.3421 43.4582 32.7176 43.1533 32.2862 42.6446L16.8187 31.6621C16.1974 31.1248 15.3248 30.9871 14.5682 31.3071C13.8117 31.6271 13.3027 32.3492 13.2555 33.1693C13.2084 33.9894 13.6313 34.7651 14.3462 35.1696L29.5837 46.0371C30.8332 47.2003 32.4766 47.8474 34.1837 47.8484C35.7892 47.8077 37.3198 47.1606 38.4675 46.0371L54.1937 35.0546C55.0978 34.3854 55.3356 33.1337 54.74 32.1796C54.0433 31.2127 52.7002 30.9825 51.7212 31.6621Z" fill="white"/>
</svg>
