<svg width="92" height="92" viewBox="0 0 92 92" fill="none" xmlns="http://www.w3.org/2000/svg">
<path fill-rule="evenodd" clip-rule="evenodd" d="M72.1247 33.0979C72.5098 31.8886 72.1247 31 70.292 31H64.2317C62.6907 31 61.9803 31.7676 61.5951 32.6141C61.5951 32.6141 58.5132 39.6884 54.1473 44.2837C52.7348 45.6138 52.0927 46.0371 51.3222 46.0371C50.937 46.0371 50.3794 45.6138 50.3794 44.4046V33.0979C50.3794 31.6467 49.9322 31 48.648 31H39.1246C38.1616 31 37.5825 31.6735 37.5825 32.3118C37.5825 33.6875 39.7654 34.0048 39.9904 37.8745V46.279C39.9904 48.1217 39.637 48.4558 38.8665 48.4558C36.812 48.4558 31.8145 41.3498 28.8505 33.2188C28.2696 31.6384 27.687 31 26.1382 31H20.0778C18.3463 31 18 31.7676 18 32.6141C18 34.1257 20.0546 41.6233 27.5665 51.5394C32.5744 58.3113 39.6302 61.9821 46.0507 61.9821C49.9029 61.9821 50.3795 61.1668 50.3795 59.7624V54.6443C50.3795 53.0136 50.7444 52.6882 51.9643 52.6882C52.8632 52.6882 54.4041 53.1114 57.9996 56.3765C62.1087 60.2461 62.7861 61.9821 65.0974 61.9821H71.1578C72.8893 61.9821 73.7551 61.1668 73.2556 59.5578C72.7091 57.9542 70.7472 55.6276 68.144 52.8696C66.7314 51.2975 64.6127 49.6046 63.9706 48.7579C63.0718 47.6697 63.3286 47.1859 63.9706 46.2186C63.9706 46.2186 71.3542 36.4234 72.1247 33.0979Z" fill="white"/>
</svg>
